<svg width="21" height="20" viewBox="0 0 21 20" fill="none" xmlns="http://www.w3.org/2000/svg">
<path fill-rule="evenodd" clip-rule="evenodd" d="M7.20117 7.96455C7.20117 10.0632 8.90249 11.7646 11.0012 11.7646C13.0985 11.7613 14.7979 10.0619 14.8012 7.96455C14.8012 5.86587 13.0999 4.16455 11.0012 4.16455C8.90249 4.16455 7.20117 5.86587 7.20117 7.96455ZM8.46586 7.97049C8.46586 6.57027 9.60096 5.43518 11.0012 5.43518C12.4014 5.43518 13.5365 6.57027 13.5365 7.97049C13.5365 9.3707 12.4014 10.5058 11.0012 10.5058C9.60096 10.5058 8.46586 9.3707 8.46586 7.97049Z" fill="#1A1A1A"/>
<rect x="1.4082" y="0.5" width="19" height="19" rx="2.5" stroke="#1A1A1A"/>
<path d="M15.4416 15.6417C15.2833 15.6421 15.1306 15.5827 15.0141 15.4755C14.1982 14.715 13.1251 14.2909 12.0097 14.288H9.99691C8.88155 14.2909 7.80846 14.715 6.99253 15.4755C6.82704 15.6408 6.58409 15.7018 6.36013 15.6343C6.13617 15.5667 5.96743 15.3816 5.92091 15.1524C5.87439 14.9231 5.95761 14.6868 6.13753 14.5373C7.18952 13.5694 8.56739 13.0331 9.99691 13.0352H12.0038C13.437 13.0349 14.8174 13.5756 15.8691 14.5492C16.0581 14.7267 16.1203 15.0012 16.0263 15.2428C15.9323 15.4844 15.7008 15.6447 15.4416 15.6477V15.6417Z" fill="#1A1A1A"/>
</svg>
