<svg width="21" height="20" viewBox="0 0 21 20" fill="none" xmlns="http://www.w3.org/2000/svg">
<rect x="1.4082" y="0.5" width="19" height="19" rx="2.5" fill="#F25500" stroke="#F25500"/>
<path fill-rule="evenodd" clip-rule="evenodd" d="M7.20117 7.96504C7.20117 10.0637 8.90249 11.765 11.0012 11.765C13.0985 11.7618 14.7979 10.0624 14.8012 7.96504C14.8012 5.86636 13.0999 4.16504 11.0012 4.16504C8.90249 4.16504 7.20117 5.86636 7.20117 7.96504ZM8.46586 7.97098C8.46586 6.57076 9.60096 5.43566 11.0012 5.43566C12.4014 5.43566 13.5365 6.57076 13.5365 7.97098C13.5365 9.37119 12.4014 10.5063 11.0012 10.5063C9.60096 10.5063 8.46586 9.37119 8.46586 7.97098Z" fill="white"/>
<path d="M15.4416 15.6427C15.2833 15.643 15.1306 15.5837 15.0141 15.4765C14.1982 14.716 13.1251 14.2919 12.0097 14.289H9.99691C8.88155 14.2919 7.80846 14.716 6.99253 15.4765C6.82704 15.6418 6.58409 15.7028 6.36013 15.6352C6.13617 15.5677 5.96743 15.3826 5.92091 15.1533C5.87439 14.9241 5.95761 14.6878 6.13753 14.5383C7.18952 13.5704 8.56739 13.0341 9.99691 13.0361H12.0038C13.437 13.0359 14.8174 13.5766 15.8691 14.5502C16.0581 14.7277 16.1203 15.0022 16.0263 15.2438C15.9323 15.4854 15.7008 15.6456 15.4416 15.6486V15.6427Z" fill="white"/>
</svg>
