<svg width="23" height="23" viewBox="0 0 23 23" fill="none" xmlns="http://www.w3.org/2000/svg">
<path d="M6.53199 4.07823C5.82397 3.36939 5.82397 2.21607 6.53199 1.50724C6.87497 1.16283 7.33098 0.974609 7.816 0.974609C8.30102 0.974609 8.756 1.16283 9.10001 1.50724C10.385 2.79372 10.989 5.18148 11.003 5.96439C11.003 5.96939 11.002 5.9764 11.002 5.9804H10.947C10.134 5.95243 7.801 5.34771 6.53199 4.07823Z" fill="#F25500" stroke="#F25500"/>
<path d="M12.053 5.9804H11.9981C11.9981 5.9764 11.9971 5.96939 11.9971 5.96439C12.0111 5.18148 12.6151 2.79372 13.9001 1.50724C14.2441 1.16283 14.699 0.974609 15.1841 0.974609C15.6691 0.974609 16.1251 1.16283 16.4681 1.50724C17.1761 2.21607 17.1761 3.36939 16.4681 4.07823C15.1991 5.34766 12.866 5.95238 12.053 5.9804Z" fill="#F25500" stroke="#F25500"/>
<rect x="1" y="7" width="8" height="3" fill="#F25500"/>
<rect x="14.5" y="11.5" width="6" height="10" fill="#F25500" stroke="#F25500"/>
<rect x="10.5" y="11.5" width="2" height="10" fill="#F25500" stroke="#F25500"/>
<rect x="2.5" y="11.5" width="6" height="10" fill="#F25500" stroke="#F25500"/>
<rect x="14" y="7" width="8" height="3" fill="#F25500"/>
<rect x="10.5" y="7.5" width="2" height="2" fill="#F25500" stroke="#F25500"/>
</svg>
