<svg width="15" height="16" viewBox="0 0 15 16" fill="none" xmlns="http://www.w3.org/2000/svg">
<g clip-path="url(#clip0_3640_6839)">
<path d="M10.5745 4.54814C10.4272 4.69544 10.2799 4.84273 10.1311 4.99153C9.77637 5.34624 9.42316 5.69944 9.06845 6.05415C8.6416 6.48101 8.21625 6.90636 7.78939 7.33321C7.41965 7.70295 7.04991 8.07269 6.68168 8.44093C6.50432 8.61828 6.32997 8.80165 6.14811 8.97449C6.1406 8.98201 6.13308 8.98802 6.12557 8.99554C6.17667 8.95646 6.22627 8.91738 6.27737 8.8783C6.26534 8.88732 6.25332 8.89333 6.2413 8.89934C6.30142 8.87379 6.36154 8.84824 6.42015 8.82419C6.40663 8.8287 6.3946 8.83321 6.37957 8.83471C6.44571 8.8257 6.51334 8.81668 6.57947 8.80766C6.56595 8.80916 6.55242 8.80916 6.53889 8.80766C6.60502 8.81668 6.67266 8.8257 6.73879 8.83471C6.72526 8.83321 6.71174 8.8302 6.69821 8.82419C6.75833 8.84974 6.81845 8.8753 6.87707 8.89934C6.86354 8.89333 6.85152 8.88732 6.841 8.8783C6.8921 8.91738 6.9417 8.95646 6.9928 8.99554C6.91314 8.9264 6.841 8.84524 6.76585 8.77159C6.593 8.59874 6.42166 8.4274 6.24881 8.25455C5.85953 7.86528 5.47176 7.4775 5.08248 7.08822C4.9923 6.99804 4.90362 6.90936 4.81344 6.81918C4.67667 6.68241 4.47526 6.59974 4.28138 6.59974C4.09651 6.59974 3.87707 6.68091 3.74931 6.81918C3.61855 6.96197 3.52086 7.14984 3.52987 7.35125C3.53889 7.55115 3.60653 7.73902 3.74931 7.88331C4.22426 8.35826 4.69921 8.83321 5.17567 9.30966C5.40412 9.53812 5.63408 9.76808 5.86254 9.99654C5.87907 10.0131 5.8941 10.0296 5.91064 10.0446C6.27286 10.3933 6.83949 10.3948 7.20172 10.0461C7.22577 10.0236 7.24981 9.99804 7.27236 9.9755C7.70823 9.53962 8.14561 9.10225 8.58148 8.66638C9.21875 8.0291 9.85452 7.39333 10.4918 6.75606C10.8675 6.38031 11.2448 6.00906 11.6175 5.63031C11.6236 5.62429 11.6296 5.61828 11.6356 5.61227C11.7724 5.4755 11.855 5.27409 11.855 5.08021C11.855 4.89534 11.7739 4.6759 11.6356 4.54814C11.4928 4.41738 11.3049 4.31968 11.1035 4.3287C10.9066 4.33622 10.7188 4.40385 10.5745 4.54814Z" fill="#3ED181"/>
<path d="M13.4973 7.31979C13.4973 7.61288 13.4777 7.90596 13.4387 8.19755C13.4477 8.13141 13.4567 8.06378 13.4657 7.99765C13.3891 8.56879 13.2373 9.1264 13.0148 9.65696C13.0404 9.59684 13.0659 9.53672 13.09 9.47811C12.869 10.0027 12.5805 10.4956 12.2333 10.9465C12.2723 10.8954 12.3114 10.8458 12.3505 10.7947C12.0078 11.2366 11.611 11.6334 11.1691 11.9761C11.2202 11.937 11.2698 11.8979 11.3209 11.8589C10.87 12.2061 10.377 12.4946 9.8525 12.7156C9.91262 12.69 9.97274 12.6645 10.0314 12.6404C9.50079 12.8629 8.94167 13.0147 8.37204 13.0913C8.43817 13.0823 8.5058 13.0733 8.57193 13.0643C7.99027 13.1409 7.39959 13.1409 6.81793 13.0643C6.88406 13.0733 6.95169 13.0823 7.01783 13.0913C6.44668 13.0147 5.88907 12.8629 5.35851 12.6404C5.41863 12.666 5.47875 12.6915 5.53737 12.7156C5.01282 12.4946 4.51983 12.2061 4.06893 11.8589C4.12003 11.8979 4.16963 11.937 4.22073 11.9761C3.77885 11.6334 3.38206 11.2366 3.03937 10.7947C3.07845 10.8458 3.11753 10.8954 3.1566 10.9465C2.80941 10.4956 2.52083 10.0027 2.29989 9.47811C2.32544 9.53823 2.35099 9.59835 2.37504 9.65696C2.1526 9.1264 2.00079 8.56728 1.92414 7.99765C1.93316 8.06378 1.94218 8.13141 1.95119 8.19755C1.87454 7.61588 1.87454 7.0252 1.95119 6.44354C1.94218 6.50967 1.93316 6.5773 1.92414 6.64344C2.00079 6.07229 2.1526 5.51468 2.37504 4.98412C2.34949 5.04424 2.32394 5.10436 2.29989 5.16298C2.52083 4.63843 2.80941 4.14544 3.1566 3.69454C3.11753 3.74564 3.07845 3.79524 3.03937 3.84634C3.38206 3.40446 3.77885 3.00767 4.22073 2.66498C4.16963 2.70406 4.12003 2.74314 4.06893 2.78221C4.51983 2.43502 5.01282 2.14644 5.53737 1.9255C5.47725 1.95105 5.41712 1.9766 5.35851 2.00065C5.88907 1.77821 6.44819 1.6264 7.01783 1.54975C6.95169 1.55877 6.88406 1.56779 6.81793 1.5768C7.39959 1.50015 7.99027 1.50015 8.57193 1.5768C8.5058 1.56779 8.43817 1.55877 8.37204 1.54975C8.94318 1.6264 9.50079 1.77821 10.0314 2.00065C9.97123 1.9751 9.91111 1.94955 9.8525 1.9255C10.377 2.14644 10.87 2.43502 11.3209 2.78221C11.2698 2.74314 11.2202 2.70406 11.1691 2.66498C11.611 3.00767 12.0078 3.40446 12.3505 3.84634C12.3114 3.79524 12.2723 3.74564 12.2333 3.69454C12.5805 4.14544 12.869 4.63843 13.09 5.16298C13.0644 5.10286 13.0389 5.04274 13.0148 4.98412C13.2373 5.51468 13.3891 6.0738 13.4657 6.64344C13.4567 6.5773 13.4477 6.50967 13.4387 6.44354C13.4777 6.73362 13.4973 7.0267 13.4973 7.31979C13.4973 7.51217 13.5815 7.71508 13.7167 7.85185C13.8475 7.98262 14.0609 8.08031 14.2488 8.07129C14.4427 8.06227 14.6441 7.99915 14.7809 7.85185C14.9161 7.70456 15.0018 7.5242 15.0003 7.31979C14.9988 6.56829 14.8861 5.80476 14.6531 5.09083C14.4276 4.39945 14.106 3.73362 13.6837 3.14143C13.4582 2.8243 13.2132 2.51919 12.9427 2.23963C12.6706 1.95857 12.3745 1.71057 12.0634 1.4731C11.4863 1.02821 10.837 0.693036 10.1531 0.440531C9.44969 0.182014 8.69668 0.0482466 7.94969 0.0196895C7.19969 -0.00886764 6.43165 0.0843187 5.70871 0.288728C5.00981 0.487124 4.32745 0.792235 3.72023 1.19203C3.11903 1.58732 2.56442 2.06528 2.106 2.62139C1.85801 2.92199 1.62504 3.23612 1.42514 3.57129C1.22224 3.90947 1.0569 4.26568 0.908107 4.62941C0.624039 5.32229 0.469229 6.05877 0.410612 6.80426C0.351995 7.56027 0.424139 8.33432 0.602997 9.07229C0.774339 9.78021 1.06292 10.4731 1.44167 11.0953C1.81442 11.7086 2.28035 12.2797 2.81843 12.7562C3.35951 13.2356 3.96522 13.6489 4.62504 13.9465C4.98727 14.1104 5.35701 14.2547 5.73877 14.3614C6.12955 14.4696 6.52935 14.5357 6.93216 14.5823C7.68817 14.6695 8.4547 14.6199 9.19869 14.4696C9.91562 14.3253 10.6175 14.0563 11.2563 13.7016C11.8846 13.3529 12.4677 12.9005 12.9637 12.3819C13.4612 11.8619 13.8926 11.2637 14.2142 10.6189C14.5434 9.95757 14.7854 9.25266 14.8981 8.52219C14.9597 8.1239 15.0003 7.7256 15.0003 7.3228C15.0003 7.13041 14.9161 6.92751 14.7809 6.79073C14.6501 6.65997 14.4367 6.56227 14.2488 6.57129C14.0549 6.58031 13.8535 6.64344 13.7167 6.79073C13.583 6.93502 13.4973 7.11538 13.4973 7.31979Z" fill="#3ED181"/>
<path d="M0.0436 15.0203C0.0436 15.0117 0.0455333 15.0043 0.0494 14.9981C0.0532667 14.992 0.0583333 14.9873 0.0646 14.9841C0.071 14.9809 0.078 14.9793 0.0856 14.9793C0.0922667 14.9793 0.0981333 14.9802 0.1032 14.9819C0.108267 14.9835 0.1128 14.9858 0.1168 14.9887C0.1208 14.9915 0.124333 14.9945 0.1274 14.9977V14.9613C0.1218 14.9569 0.115667 14.9535 0.109 14.9509C0.102333 14.9484 0.0938667 14.9471 0.0836 14.9471C0.0724 14.9471 0.0620667 14.9489 0.0526 14.9523C0.0431333 14.9558 0.035 14.9608 0.0282 14.9673C0.0214 14.9739 0.0161333 14.9816 0.0124 14.9905C0.00866667 14.9995 0.0068 15.0094 0.0068 15.0203C0.0068 15.0313 0.00866667 15.0412 0.0124 15.0501C0.0161333 15.0591 0.0214 15.0668 0.0282 15.0733C0.035 15.0799 0.0431333 15.0849 0.0526 15.0883C0.0620667 15.0918 0.0724 15.0935 0.0836 15.0935C0.0938667 15.0935 0.102333 15.0923 0.109 15.0897C0.115667 15.0872 0.1218 15.0837 0.1274 15.0793V15.0429C0.124333 15.0461 0.1208 15.0491 0.1168 15.0519C0.1128 15.0547 0.108267 15.057 0.1032 15.0587C0.0981333 15.0605 0.0922667 15.0613 0.0856 15.0613C0.078 15.0613 0.071 15.0597 0.0646 15.0565C0.0583333 15.0533 0.0532667 15.0487 0.0494 15.0425C0.0455333 15.0363 0.0436 15.0289 0.0436 15.0203ZM0.181834 14.9983H0.152034V15.0903H0.181834V14.9983ZM0.208434 15.0295L0.221434 15.0037C0.219834 15.0013 0.217501 14.9995 0.214434 14.9981C0.211368 14.9968 0.208168 14.9961 0.204834 14.9961C0.199768 14.9961 0.194901 14.9978 0.190234 15.0011C0.185568 15.0045 0.181768 15.009 0.178834 15.0147C0.176034 15.0205 0.174634 15.027 0.174634 15.0343L0.181834 15.0449C0.181834 15.0405 0.182434 15.0368 0.183634 15.0337C0.184834 15.0307 0.186568 15.0283 0.188834 15.0267C0.191101 15.0251 0.193701 15.0243 0.196634 15.0243C0.199301 15.0243 0.201501 15.0248 0.203234 15.0257C0.205101 15.0267 0.206834 15.0279 0.208434 15.0295ZM0.278131 15.0923C0.289865 15.0923 0.299798 15.0901 0.307931 15.0855C0.316198 15.081 0.322731 15.0742 0.327531 15.0651L0.300531 15.0585C0.298265 15.0625 0.295198 15.0655 0.291331 15.0675C0.287598 15.0695 0.283065 15.0705 0.277731 15.0705C0.273065 15.0705 0.269131 15.0695 0.265931 15.0675C0.262731 15.0654 0.260331 15.0623 0.258731 15.0583C0.257131 15.0543 0.256331 15.0495 0.256331 15.0439C0.256465 15.0378 0.257265 15.0327 0.258731 15.0287C0.260331 15.0246 0.262665 15.0215 0.265731 15.0195C0.268798 15.0175 0.272598 15.0165 0.277131 15.0165C0.280731 15.0165 0.283865 15.0173 0.286531 15.0189C0.289198 15.0205 0.291265 15.0228 0.292731 15.0257C0.294198 15.0287 0.294931 15.0321 0.294931 15.0361C0.294931 15.0371 0.294665 15.0383 0.294131 15.0397C0.293731 15.0411 0.293198 15.0422 0.292531 15.0431L0.299731 15.0339H0.242931V15.0507H0.326931C0.327198 15.0498 0.327331 15.0487 0.327331 15.0473C0.327331 15.0459 0.327331 15.0444 0.327331 15.0429C0.327331 15.0331 0.325398 15.0247 0.321531 15.0177C0.317665 15.0108 0.312065 15.0055 0.304731 15.0019C0.297398 14.9982 0.288398 14.9963 0.277731 14.9963C0.267065 14.9963 0.257798 14.9983 0.249931 15.0021C0.242198 15.006 0.236265 15.0115 0.232131 15.0187C0.227998 15.0259 0.225931 15.0345 0.225931 15.0443C0.225931 15.0541 0.228065 15.0625 0.232331 15.0697C0.236598 15.0769 0.242598 15.0825 0.250331 15.0865C0.258198 15.0904 0.267465 15.0923 0.278131 15.0923ZM0.36938 15.0615C0.36938 15.0593 0.369913 15.0574 0.37098 15.0559C0.372046 15.0543 0.373646 15.0531 0.37578 15.0523C0.377913 15.0515 0.38078 15.0511 0.38438 15.0511C0.389046 15.0511 0.393446 15.0518 0.39758 15.0531C0.401846 15.0543 0.40558 15.0561 0.40878 15.0585V15.0451C0.40718 15.0434 0.40478 15.0417 0.40158 15.0401C0.39838 15.0385 0.394513 15.0372 0.38998 15.0361C0.38558 15.0351 0.38058 15.0345 0.37498 15.0345C0.363513 15.0345 0.354646 15.0371 0.34838 15.0423C0.342113 15.0474 0.33898 15.0543 0.33898 15.0631C0.33898 15.0694 0.340446 15.0747 0.34338 15.0791C0.346446 15.0835 0.350446 15.0869 0.35538 15.0891C0.360446 15.0913 0.365913 15.0923 0.37178 15.0923C0.377646 15.0923 0.383113 15.0913 0.38818 15.0893C0.393246 15.0872 0.39738 15.0841 0.40058 15.0801C0.40378 15.076 0.40538 15.071 0.40538 15.0651L0.40218 15.0531C0.40218 15.0574 0.401246 15.061 0.39938 15.0639C0.397513 15.0669 0.395113 15.0691 0.39218 15.0705C0.389246 15.072 0.386046 15.0727 0.38258 15.0727C0.38018 15.0727 0.37798 15.0723 0.37598 15.0715C0.37398 15.0706 0.37238 15.0693 0.37118 15.0677C0.36998 15.066 0.36938 15.0639 0.36938 15.0615ZM0.35598 15.0265C0.357313 15.0257 0.359446 15.0247 0.36238 15.0235C0.365313 15.0222 0.368713 15.0211 0.37258 15.0201C0.37658 15.0192 0.380646 15.0187 0.38478 15.0187C0.38758 15.0187 0.390046 15.019 0.39218 15.0195C0.394446 15.0201 0.396313 15.0209 0.39778 15.0221C0.399246 15.0233 0.400313 15.0248 0.40098 15.0265C0.40178 15.0281 0.40218 15.0301 0.40218 15.0323V15.0903H0.43118V15.0255C0.43118 15.0191 0.429313 15.0137 0.42558 15.0093C0.421846 15.0049 0.41678 15.0016 0.41038 14.9993C0.40398 14.9969 0.396713 14.9957 0.38858 14.9957C0.379913 14.9957 0.371913 14.9969 0.36458 14.9991C0.357246 15.0014 0.35098 15.0038 0.34578 15.0063L0.35598 15.0265ZM0.442992 14.9983V15.0233H0.504592V14.9983H0.442992ZM0.459192 14.9663V15.0903H0.488192V14.9663H0.459192ZM0.564264 15.0923C0.575997 15.0923 0.585931 15.0901 0.594064 15.0855C0.602331 15.081 0.608864 15.0742 0.613664 15.0651L0.586664 15.0585C0.584397 15.0625 0.581331 15.0655 0.577464 15.0675C0.573731 15.0695 0.569197 15.0705 0.563864 15.0705C0.559197 15.0705 0.555264 15.0695 0.552064 15.0675C0.548864 15.0654 0.546464 15.0623 0.544864 15.0583C0.543264 15.0543 0.542464 15.0495 0.542464 15.0439C0.542597 15.0378 0.543397 15.0327 0.544864 15.0287C0.546464 15.0246 0.548797 15.0215 0.551864 15.0195C0.554931 15.0175 0.558731 15.0165 0.563264 15.0165C0.566864 15.0165 0.569997 15.0173 0.572664 15.0189C0.575331 15.0205 0.577397 15.0228 0.578864 15.0257C0.580331 15.0287 0.581064 15.0321 0.581064 15.0361C0.581064 15.0371 0.580797 15.0383 0.580264 15.0397C0.579864 15.0411 0.579331 15.0422 0.578664 15.0431L0.585864 15.0339H0.529064V15.0507H0.613064C0.613331 15.0498 0.613464 15.0487 0.613464 15.0473C0.613464 15.0459 0.613464 15.0444 0.613464 15.0429C0.613464 15.0331 0.611531 15.0247 0.607664 15.0177C0.603797 15.0108 0.598197 15.0055 0.590864 15.0019C0.583531 14.9982 0.574531 14.9963 0.563864 14.9963C0.553197 14.9963 0.543931 14.9983 0.536064 15.0021C0.528331 15.006 0.522397 15.0115 0.518264 15.0187C0.514131 15.0259 0.512064 15.0345 0.512064 15.0443C0.512064 15.0541 0.514197 15.0625 0.518464 15.0697C0.522731 15.0769 0.528731 15.0825 0.536464 15.0865C0.544331 15.0904 0.553597 15.0923 0.564264 15.0923ZM0.701913 14.9343V15.0903H0.732113V14.9343H0.701913ZM0.626713 15.0443C0.626713 15.0546 0.628779 15.0633 0.632913 15.0705C0.637179 15.0776 0.642646 15.083 0.649313 15.0867C0.655979 15.0905 0.663046 15.0923 0.670513 15.0923C0.678246 15.0923 0.685046 15.0904 0.690913 15.0865C0.696913 15.0827 0.701646 15.0771 0.705113 15.0699C0.708579 15.0627 0.710313 15.0542 0.710313 15.0443C0.710313 15.0343 0.708579 15.0258 0.705113 15.0187C0.701646 15.0115 0.696913 15.006 0.690913 15.0021C0.685046 14.9983 0.678246 14.9963 0.670513 14.9963C0.663046 14.9963 0.655979 14.9982 0.649313 15.0019C0.642646 15.0057 0.637179 15.0111 0.632913 15.0181C0.628779 15.0252 0.626713 15.0339 0.626713 15.0443ZM0.658513 15.0443C0.658513 15.0395 0.659513 15.0354 0.661513 15.0319C0.663513 15.0283 0.666179 15.0256 0.669513 15.0237C0.672846 15.0217 0.676513 15.0207 0.680513 15.0207C0.683979 15.0207 0.687313 15.0217 0.690513 15.0235C0.693846 15.0254 0.696579 15.0281 0.698713 15.0317C0.700846 15.0352 0.701913 15.0394 0.701913 15.0443C0.701913 15.0493 0.700846 15.0535 0.698713 15.0571C0.696579 15.0606 0.693846 15.0633 0.690513 15.0651C0.687313 15.067 0.683979 15.0679 0.680513 15.0679C0.676513 15.0679 0.672846 15.067 0.669513 15.0651C0.666179 15.0631 0.663513 15.0604 0.661513 15.0569C0.659513 15.0533 0.658513 15.0491 0.658513 15.0443ZM0.0418 14.9343H0.0116V15.0903H0.0418V14.9343ZM0.117 15.0443C0.117 15.0339 0.114867 15.0252 0.1106 15.0181C0.106467 15.0111 0.101067 15.0057 0.0944 15.0019C0.0878667 14.9982 0.0808 14.9963 0.0732 14.9963C0.0656 14.9963 0.0588 14.9983 0.0528 15.0021C0.0468 15.006 0.0420667 15.0115 0.0386 15.0187C0.0351333 15.0258 0.0334 15.0343 0.0334 15.0443C0.0334 15.0542 0.0351333 15.0627 0.0386 15.0699C0.0420667 15.0771 0.0468 15.0827 0.0528 15.0865C0.0588 15.0904 0.0656 15.0923 0.0732 15.0923C0.0808 15.0923 0.0878667 15.0905 0.0944 15.0867C0.101067 15.083 0.106467 15.0776 0.1106 15.0705C0.114867 15.0633 0.117 15.0546 0.117 15.0443ZM0.0852 15.0443C0.0852 15.0491 0.0842 15.0533 0.0822 15.0569C0.0802 15.0604 0.0775333 15.0631 0.0742 15.0651C0.0708667 15.067 0.0672 15.0679 0.0632 15.0679C0.0597333 15.0679 0.0563333 15.067 0.053 15.0651C0.0498 15.0633 0.0471333 15.0606 0.045 15.0571C0.0428667 15.0535 0.0418 15.0493 0.0418 15.0443C0.0418 15.0394 0.0428667 15.0352 0.045 15.0317C0.0471333 15.0281 0.0498 15.0254 0.053 15.0235C0.0563333 15.0217 0.0597333 15.0207 0.0632 15.0207C0.0672 15.0207 0.0708667 15.0217 0.0742 15.0237C0.0775333 15.0256 0.0802 15.0283 0.0822 15.0319C0.0842 15.0354 0.0852 15.0395 0.0852 15.0443ZM0.226508 14.9983H0.195508L0.166108 15.0719L0.181708 15.0721L0.151908 14.9983H0.118708L0.158508 15.0829L0.136108 15.1343H0.166508L0.226508 14.9983ZM0.0168 15.0569L0.0042 15.0769C0.00833333 15.0801 0.0128 15.0831 0.0176 15.0857C0.0224 15.0883 0.0276 15.0903 0.0332 15.0917C0.0389333 15.0933 0.0450667 15.0941 0.0516 15.0941C0.0626667 15.0941 0.0712 15.0917 0.0772 15.0867C0.0833333 15.0817 0.0864 15.0742 0.0864 15.0643C0.0864 15.0586 0.0851333 15.054 0.0826 15.0505C0.0802 15.0471 0.0769333 15.0442 0.0728 15.0419C0.0688 15.0397 0.0644 15.0377 0.0596 15.0359C0.0550667 15.0342 0.0512 15.0328 0.048 15.0317C0.0449333 15.0305 0.0425333 15.0293 0.0408 15.0279C0.0392 15.0266 0.0384 15.0249 0.0384 15.0229C0.0384 15.0212 0.0390667 15.0198 0.0404 15.0187C0.0418667 15.0177 0.044 15.0171 0.0468 15.0171C0.0509333 15.0171 0.0554667 15.0183 0.0604 15.0207C0.0653333 15.023 0.0697333 15.0259 0.0736 15.0295L0.0844 15.0099C0.0808 15.0073 0.0769333 15.0049 0.0728 15.0029C0.0688 15.0009 0.0644667 14.9993 0.0598 14.9981C0.0552667 14.9969 0.0503333 14.9963 0.045 14.9963C0.0383333 14.9963 0.0324 14.9973 0.0272 14.9993C0.0221333 15.0013 0.0180667 15.0043 0.015 15.0081C0.0120667 15.012 0.0106 15.0167 0.0106 15.0223C0.0106 15.0282 0.0118667 15.033 0.0144 15.0367C0.0169333 15.0405 0.0201333 15.0435 0.024 15.0457C0.028 15.0479 0.0322 15.0497 0.0366 15.0513C0.0415333 15.0528 0.0454 15.0542 0.0482 15.0555C0.0511333 15.0569 0.0532 15.0583 0.0544 15.0597C0.0556 15.0611 0.0562 15.0627 0.0562 15.0647C0.0562 15.0669 0.0554667 15.0686 0.054 15.0699C0.0525333 15.0713 0.0502667 15.0719 0.0472 15.0719C0.0450667 15.0719 0.0425333 15.0715 0.0396 15.0707C0.0366667 15.0698 0.0332667 15.0683 0.0294 15.0661C0.0256667 15.0639 0.0214667 15.0608 0.0168 15.0569ZM0.133411 14.9343H0.103011V15.0903H0.133411V14.9343ZM0.162811 15.0343V15.0903H0.193011V15.0299C0.193011 15.0223 0.191944 15.0159 0.189811 15.0107C0.187678 15.0055 0.184278 15.0016 0.179611 14.9989C0.175078 14.9963 0.169011 14.9949 0.161411 14.9949C0.153811 14.9949 0.147544 14.9967 0.142611 15.0003C0.137811 15.0038 0.134211 15.0085 0.131811 15.0145C0.129411 15.0204 0.128211 15.027 0.128211 15.0343H0.133411C0.133411 15.0307 0.134078 15.0277 0.135411 15.0253C0.136744 15.0228 0.138611 15.0209 0.141011 15.0195C0.143411 15.0181 0.146211 15.0173 0.149411 15.0173C0.154344 15.0173 0.157811 15.0188 0.159811 15.0217C0.161811 15.0247 0.162811 15.0289 0.162811 15.0343ZM0.240083 15.0615C0.240083 15.0593 0.240616 15.0574 0.241683 15.0559C0.242749 15.0543 0.244349 15.0531 0.246483 15.0523C0.248616 15.0515 0.251483 15.0511 0.255083 15.0511C0.259749 15.0511 0.264149 15.0518 0.268283 15.0531C0.272549 15.0543 0.276283 15.0561 0.279483 15.0585V15.0451C0.277883 15.0434 0.275483 15.0417 0.272283 15.0401C0.269083 15.0385 0.265216 15.0372 0.260683 15.0361C0.256283 15.0351 0.251283 15.0345 0.245683 15.0345C0.234216 15.0345 0.225349 15.0371 0.219083 15.0423C0.212816 15.0474 0.209683 15.0543 0.209683 15.0631C0.209683 15.0694 0.211149 15.0747 0.214083 15.0791C0.217149 15.0835 0.221149 15.0869 0.226083 15.0891C0.231149 15.0913 0.236616 15.0923 0.242483 15.0923C0.248349 15.0923 0.253816 15.0913 0.258883 15.0893C0.263949 15.0872 0.268083 15.0841 0.271283 15.0801C0.274483 15.076 0.276083 15.071 0.276083 15.0651L0.272883 15.0531C0.272883 15.0574 0.271949 15.061 0.270083 15.0639C0.268216 15.0669 0.265816 15.0691 0.262883 15.0705C0.259949 15.072 0.256749 15.0727 0.253283 15.0727C0.250883 15.0727 0.248683 15.0723 0.246683 15.0715C0.244683 15.0706 0.243083 15.0693 0.241883 15.0677C0.240683 15.066 0.240083 15.0639 0.240083 15.0615ZM0.226683 15.0265C0.228016 15.0257 0.230149 15.0247 0.233083 15.0235C0.236016 15.0222 0.239416 15.0211 0.243283 15.0201C0.247283 15.0192 0.251349 15.0187 0.255483 15.0187C0.258283 15.0187 0.260749 15.019 0.262883 15.0195C0.265149 15.0201 0.267016 15.0209 0.268483 15.0221C0.269949 15.0233 0.271016 15.0248 0.271683 15.0265C0.272483 15.0281 0.272883 15.0301 0.272883 15.0323V15.0903H0.301883V15.0255C0.301883 15.0191 0.300016 15.0137 0.296283 15.0093C0.292549 15.0049 0.287483 15.0016 0.281083 14.9993C0.274683 14.9969 0.267416 14.9957 0.259283 14.9957C0.250616 14.9957 0.242616 14.9969 0.235283 14.9991C0.227949 15.0014 0.221683 15.0038 0.216483 15.0063L0.226683 15.0265ZM0.329495 15.0569L0.316895 15.0769C0.321029 15.0801 0.325495 15.0831 0.330295 15.0857C0.335095 15.0883 0.340295 15.0903 0.345895 15.0917C0.351629 15.0933 0.357762 15.0941 0.364295 15.0941C0.375362 15.0941 0.383895 15.0917 0.389895 15.0867C0.396029 15.0817 0.399095 15.0742 0.399095 15.0643C0.399095 15.0586 0.397829 15.054 0.395295 15.0505C0.392895 15.0471 0.389629 15.0442 0.385495 15.0419C0.381495 15.0397 0.377095 15.0377 0.372295 15.0359C0.367762 15.0342 0.363895 15.0328 0.360695 15.0317C0.357629 15.0305 0.355229 15.0293 0.353495 15.0279C0.351895 15.0266 0.351095 15.0249 0.351095 15.0229C0.351095 15.0212 0.351762 15.0198 0.353095 15.0187C0.354562 15.0177 0.356695 15.0171 0.359495 15.0171C0.363629 15.0171 0.368162 15.0183 0.373095 15.0207C0.378029 15.023 0.382429 15.0259 0.386295 15.0295L0.397095 15.0099C0.393495 15.0073 0.389629 15.0049 0.385495 15.0029C0.381495 15.0009 0.377162 14.9993 0.372495 14.9981C0.367962 14.9969 0.363029 14.9963 0.357695 14.9963C0.351029 14.9963 0.345095 14.9973 0.339895 14.9993C0.334829 15.0013 0.330762 15.0043 0.327695 15.0081C0.324762 15.012 0.323295 15.0167 0.323295 15.0223C0.323295 15.0282 0.324562 15.033 0.327095 15.0367C0.329629 15.0405 0.332829 15.0435 0.336695 15.0457C0.340695 15.0479 0.344895 15.0497 0.349295 15.0513C0.354229 15.0528 0.358095 15.0542 0.360895 15.0555C0.363829 15.0569 0.365895 15.0583 0.367095 15.0597C0.368295 15.0611 0.368895 15.0627 0.368895 15.0647C0.368895 15.0669 0.368162 15.0686 0.366695 15.0699C0.365229 15.0713 0.362962 15.0719 0.359895 15.0719C0.357762 15.0719 0.355229 15.0715 0.352295 15.0707C0.349362 15.0698 0.345962 15.0683 0.342095 15.0661C0.338362 15.0639 0.334162 15.0608 0.329495 15.0569ZM0.446106 14.9343H0.415706V15.0903H0.446106V14.9343ZM0.475506 15.0343V15.0903H0.505706V15.0299C0.505706 15.0223 0.50464 15.0159 0.502506 15.0107C0.500373 15.0055 0.496973 15.0016 0.492306 14.9989C0.487773 14.9963 0.481706 14.9949 0.474106 14.9949C0.466506 14.9949 0.46024 14.9967 0.455306 15.0003C0.450506 15.0038 0.446906 15.0085 0.444506 15.0145C0.442106 15.0204 0.440906 15.027 0.440906 15.0343H0.446106C0.446106 15.0307 0.446773 15.0277 0.448106 15.0253C0.44944 15.0228 0.451306 15.0209 0.453706 15.0195C0.456106 15.0181 0.458906 15.0173 0.462106 15.0173C0.46704 15.0173 0.470506 15.0188 0.472506 15.0217C0.474506 15.0247 0.475506 15.0289 0.475506 15.0343ZM0.552778 15.0615C0.552778 15.0593 0.553311 15.0574 0.554378 15.0559C0.555445 15.0543 0.557045 15.0531 0.559178 15.0523C0.561311 15.0515 0.564178 15.0511 0.567778 15.0511C0.572445 15.0511 0.576845 15.0518 0.580978 15.0531C0.585245 15.0543 0.588978 15.0561 0.592178 15.0585V15.0451C0.590578 15.0434 0.588178 15.0417 0.584978 15.0401C0.581778 15.0385 0.577911 15.0372 0.573378 15.0361C0.568978 15.0351 0.563978 15.0345 0.558378 15.0345C0.546911 15.0345 0.538045 15.0371 0.531778 15.0423C0.525511 15.0474 0.522378 15.0543 0.522378 15.0631C0.522378 15.0694 0.523845 15.0747 0.526778 15.0791C0.529845 15.0835 0.533845 15.0869 0.538778 15.0891C0.543845 15.0913 0.549311 15.0923 0.555178 15.0923C0.561045 15.0923 0.566511 15.0913 0.571578 15.0893C0.576645 15.0872 0.580778 15.0841 0.583978 15.0801C0.587178 15.076 0.588778 15.071 0.588778 15.0651L0.585578 15.0531C0.585578 15.0574 0.584645 15.061 0.582778 15.0639C0.580911 15.0669 0.578511 15.0691 0.575578 15.0705C0.572645 15.072 0.569445 15.0727 0.565978 15.0727C0.563578 15.0727 0.561378 15.0723 0.559378 15.0715C0.557378 15.0706 0.555778 15.0693 0.554578 15.0677C0.553378 15.066 0.552778 15.0639 0.552778 15.0615ZM0.539378 15.0265C0.540711 15.0257 0.542845 15.0247 0.545778 15.0235C0.548711 15.0222 0.552111 15.0211 0.555978 15.0201C0.559978 15.0192 0.564045 15.0187 0.568178 15.0187C0.570978 15.0187 0.573445 15.019 0.575578 15.0195C0.577845 15.0201 0.579711 15.0209 0.581178 15.0221C0.582645 15.0233 0.583711 15.0248 0.584378 15.0265C0.585178 15.0281 0.585578 15.0301 0.585578 15.0323V15.0903H0.614578V15.0255C0.614578 15.0191 0.612711 15.0137 0.608978 15.0093C0.605245 15.0049 0.600178 15.0016 0.593778 14.9993C0.587378 14.9969 0.580111 14.9957 0.571978 14.9957C0.563311 14.9957 0.555311 14.9969 0.547978 14.9991C0.540645 15.0014 0.534378 15.0038 0.529178 15.0063L0.539378 15.0265ZM0.696991 15.0343V15.0903H0.728391V15.0311C0.728391 15.0201 0.725791 15.0115 0.720591 15.0053C0.715391 14.9992 0.707057 14.9961 0.695591 14.9961C0.688791 14.9961 0.683057 14.9975 0.678391 15.0003C0.673857 15.0031 0.670257 15.0071 0.667591 15.0121V14.9983H0.637191V15.0903H0.667591V15.0343C0.667591 15.0307 0.668257 15.0277 0.669591 15.0251C0.670924 15.0226 0.672791 15.0207 0.675191 15.0193C0.677591 15.018 0.680391 15.0173 0.683591 15.0173C0.688391 15.0173 0.691791 15.0188 0.693791 15.0217C0.695924 15.0247 0.696991 15.0289 0.696991 15.0343ZM0.75203 14.9343V15.0903H0.78103V14.9343H0.75203ZM0.81443 14.9983L0.77503 15.0363L0.81903 15.0903H0.85443L0.81123 15.0363L0.85043 14.9983H0.81443ZM0.0168 15.0569L0.0042 15.0769C0.00833333 15.0801 0.0128 15.0831 0.0176 15.0857C0.0224 15.0883 0.0276 15.0903 0.0332 15.0917C0.0389333 15.0933 0.0450667 15.0941 0.0516 15.0941C0.0626667 15.0941 0.0712 15.0917 0.0772 15.0867C0.0833333 15.0817 0.0864 15.0742 0.0864 15.0643C0.0864 15.0586 0.0851333 15.054 0.0826 15.0505C0.0802 15.0471 0.0769333 15.0442 0.0728 15.0419C0.0688 15.0397 0.0644 15.0377 0.0596 15.0359C0.0550667 15.0342 0.0512 15.0328 0.048 15.0317C0.0449333 15.0305 0.0425333 15.0293 0.0408 15.0279C0.0392 15.0266 0.0384 15.0249 0.0384 15.0229C0.0384 15.0212 0.0390667 15.0198 0.0404 15.0187C0.0418667 15.0177 0.044 15.0171 0.0468 15.0171C0.0509333 15.0171 0.0554667 15.0183 0.0604 15.0207C0.0653333 15.023 0.0697333 15.0259 0.0736 15.0295L0.0844 15.0099C0.0808 15.0073 0.0769333 15.0049 0.0728 15.0029C0.0688 15.0009 0.0644667 14.9993 0.0598 14.9981C0.0552667 14.9969 0.0503333 14.9963 0.045 14.9963C0.0383333 14.9963 0.0324 14.9973 0.0272 14.9993C0.0221333 15.0013 0.0180667 15.0043 0.015 15.0081C0.0120667 15.012 0.0106 15.0167 0.0106 15.0223C0.0106 15.0282 0.0118667 15.033 0.0144 15.0367C0.0169333 15.0405 0.0201333 15.0435 0.024 15.0457C0.028 15.0479 0.0322 15.0497 0.0366 15.0513C0.0415333 15.0528 0.0454 15.0542 0.0482 15.0555C0.0511333 15.0569 0.0532 15.0583 0.0544 15.0597C0.0556 15.0611 0.0562 15.0627 0.0562 15.0647C0.0562 15.0669 0.0554667 15.0686 0.054 15.0699C0.0525333 15.0713 0.0502667 15.0719 0.0472 15.0719C0.0450667 15.0719 0.0425333 15.0715 0.0396 15.0707C0.0366667 15.0698 0.0332667 15.0683 0.0294 15.0661C0.0256667 15.0639 0.0214667 15.0608 0.0168 15.0569ZM0.101211 14.9637C0.101211 14.9685 0.102944 14.9725 0.106411 14.9755C0.109878 14.9786 0.114011 14.9801 0.118811 14.9801C0.123744 14.9801 0.127878 14.9786 0.131211 14.9755C0.134678 14.9725 0.136411 14.9685 0.136411 14.9637C0.136411 14.9589 0.134678 14.9551 0.131211 14.9521C0.127878 14.9491 0.123744 14.9475 0.118811 14.9475C0.114011 14.9475 0.109878 14.9491 0.106411 14.9521C0.102944 14.9551 0.101211 14.9589 0.101211 14.9637ZM0.104211 14.9983V15.0903H0.133411V14.9983H0.104211ZM0.218084 15.0343V15.0903H0.249484V15.0311C0.249484 15.0201 0.246884 15.0115 0.241684 15.0053C0.236484 14.9992 0.228151 14.9961 0.216684 14.9961C0.209884 14.9961 0.204151 14.9975 0.199484 15.0003C0.194951 15.0031 0.191351 15.0071 0.188684 15.0121V14.9983H0.158284V15.0903H0.188684V15.0343C0.188684 15.0307 0.189351 15.0277 0.190684 15.0251C0.192018 15.0226 0.193884 15.0207 0.196284 15.0193C0.198684 15.018 0.201484 15.0173 0.204684 15.0173C0.209484 15.0173 0.212884 15.0188 0.214884 15.0217C0.217018 15.0247 0.218084 15.0289 0.218084 15.0343ZM0.269923 15.0969C0.27059 15.1051 0.27279 15.1122 0.276523 15.1183C0.280257 15.1246 0.28579 15.1295 0.293123 15.1329C0.30059 15.1364 0.30999 15.1381 0.321323 15.1381C0.33079 15.1381 0.339323 15.1364 0.346923 15.1329C0.354523 15.1296 0.36059 15.1243 0.365123 15.1169C0.36979 15.1096 0.372123 15.1001 0.372123 15.0883V14.9983H0.343123V15.0883C0.343123 15.0939 0.342057 15.0986 0.339923 15.1023C0.337923 15.1062 0.33519 15.1091 0.331723 15.1109C0.328257 15.1129 0.32439 15.1139 0.320123 15.1139C0.316257 15.1139 0.31279 15.1133 0.309723 15.1119C0.306657 15.1107 0.30419 15.1089 0.302323 15.1063C0.30059 15.1038 0.299523 15.1007 0.299123 15.0969H0.269923ZM0.267923 15.0431C0.267923 15.0534 0.26999 15.062 0.274123 15.0689C0.27839 15.0759 0.283857 15.0811 0.290523 15.0847C0.29719 15.0882 0.304257 15.0899 0.311723 15.0899C0.319457 15.0899 0.326257 15.0881 0.332123 15.0845C0.338123 15.0808 0.342857 15.0755 0.346323 15.0685C0.34979 15.0615 0.351523 15.053 0.351523 15.0431C0.351523 15.0331 0.34979 15.0247 0.346323 15.0177C0.342857 15.0108 0.338123 15.0055 0.332123 15.0019C0.326257 14.9982 0.319457 14.9963 0.311723 14.9963C0.304257 14.9963 0.29719 14.9981 0.290523 15.0015C0.283857 15.005 0.27839 15.0102 0.274123 15.0171C0.26999 15.0241 0.267923 15.0327 0.267923 15.0431ZM0.299723 15.0431C0.299723 15.0383 0.300723 15.0343 0.302723 15.0309C0.304723 15.0276 0.30739 15.0251 0.310723 15.0233C0.314057 15.0216 0.317723 15.0207 0.321723 15.0207C0.324257 15.0207 0.32679 15.0212 0.329323 15.0221C0.331857 15.0231 0.334123 15.0245 0.336123 15.0263C0.338257 15.0282 0.339923 15.0305 0.341123 15.0333C0.342457 15.0361 0.343123 15.0394 0.343123 15.0431C0.343123 15.0481 0.342057 15.0522 0.339923 15.0555C0.33779 15.0589 0.335057 15.0614 0.331723 15.0631C0.328523 15.0647 0.32519 15.0655 0.321723 15.0655C0.317723 15.0655 0.314057 15.0647 0.310723 15.0629C0.30739 15.0612 0.304723 15.0587 0.302723 15.0553C0.300723 15.0519 0.299723 15.0478 0.299723 15.0431ZM0.425794 14.9343H0.395394V15.0903H0.425794V14.9343ZM0.455194 15.0343V15.0903H0.485394V15.0299C0.485394 15.0223 0.484327 15.0159 0.482194 15.0107C0.48006 15.0055 0.47666 15.0016 0.471994 14.9989C0.46746 14.9963 0.461394 14.9949 0.453794 14.9949C0.446194 14.9949 0.439927 14.9967 0.434994 15.0003C0.430194 15.0038 0.426594 15.0085 0.424194 15.0145C0.421794 15.0204 0.420594 15.027 0.420594 15.0343H0.425794C0.425794 15.0307 0.42646 15.0277 0.427794 15.0253C0.429127 15.0228 0.430994 15.0209 0.433394 15.0195C0.435794 15.0181 0.438594 15.0173 0.441794 15.0173C0.446727 15.0173 0.450194 15.0188 0.452194 15.0217C0.454194 15.0247 0.455194 15.0289 0.455194 15.0343Z" fill="black"/>
</g>
<defs>
<clipPath id="clip0_3640_6839">
<rect width="15" height="16" fill="white"/>
</clipPath>
</defs>
</svg>
