<svg width="12" height="13" viewBox="0 0 12 13" fill="none" xmlns="http://www.w3.org/2000/svg">
<path fill-rule="evenodd" clip-rule="evenodd" d="M7.37599 12.9687C7.30302 12.9896 7.23526 13 7.17272 13C7.00593 13 6.87042 12.9426 6.76618 12.8279L4.81165 10.8099C4.69698 10.7056 4.63965 10.5752 4.63965 10.4188V6.3201L0.370956 2.20578C0.193746 2.01805 0.0790798 1.79643 0.026959 1.54091C-0.0251618 1.2854 -0.00170741 1.0351 0.0973221 0.790012C0.196352 0.544926 0.35532 0.351986 0.574227 0.211191C0.793134 0.0703971 1.03289 0 1.29349 0H10.7065C10.9671 0 11.2069 0.0703971 11.4258 0.211191C11.6447 0.351986 11.8036 0.544926 11.9027 0.790012C12.0017 1.0351 12.0252 1.28801 11.973 1.54874C11.9209 1.79904 11.801 2.01805 11.6134 2.20578L7.73562 6.28881V12.4368C7.73562 12.6976 7.61574 12.8749 7.37599 12.9687ZM5.76546 10.1841L6.60981 11.0915V6.05415C6.60981 5.89771 6.66193 5.76735 6.76618 5.66306L10.816 1.40794C10.8681 1.3558 10.8811 1.29583 10.8551 1.22804C10.829 1.16025 10.7795 1.12635 10.7065 1.12635H1.29349C1.22052 1.12635 1.1684 1.16025 1.13713 1.22804C1.10586 1.29583 1.11628 1.3558 1.1684 1.40794L5.60909 5.69434C5.71334 5.79864 5.76546 5.929 5.76546 6.08544V10.1841Z" fill="#1A1A1A"/>
</svg>
