<svg width="23" height="23" viewBox="0 0 23 23" fill="none" xmlns="http://www.w3.org/2000/svg">
<path fill-rule="evenodd" clip-rule="evenodd" d="M22.5002 5.98033H15.4621C16.0861 5.66294 16.6891 5.27252 17.1751 4.78595C18.2731 3.68669 18.2731 1.89861 17.1751 0.799313C16.1111 -0.265943 14.2571 -0.266932 13.1931 0.799313C12.4091 1.5842 11.8561 2.66349 11.5001 3.66664C11.1441 2.66349 10.5911 1.5842 9.80704 0.799313C8.74203 -0.266932 6.88701 -0.265943 5.82501 0.799313C4.72702 1.89857 4.72702 3.68665 5.82501 4.78595C6.31102 5.27252 6.91401 5.66294 7.53802 5.98033H0.499983C0.223982 5.98033 0 6.20457 0 6.48089V10.4855C0 10.7618 0.223982 10.9861 0.499983 10.9861H0.999967V22.4994C0.999967 22.7758 1.22395 23 1.49995 23H9.5H13.5H21.5C21.7761 23 22 22.7758 22 22.4994V10.9861H22.5C22.776 10.9861 23 10.7618 23 10.4855V6.48089C23.0001 6.20457 22.7762 5.98033 22.5002 5.98033ZM9.00006 21.9989H2.00002V10.9861H9.00006V21.9989ZM1.5 9.98495H9.00006V6.98149H1.00001V9.98495H1.5ZM6.53204 4.0781C5.82402 3.36927 5.82402 2.21595 6.53204 1.50711C6.87502 1.1627 7.33102 0.974487 7.81605 0.974487C8.30107 0.974487 8.75604 1.1627 9.10006 1.50711C10.3851 2.7936 10.9891 5.18136 11.003 5.96427C11.003 5.9669 11.0028 5.9701 11.0025 5.97312C11.0023 5.97583 11.0021 5.97839 11.0021 5.98028H10.9471C10.1341 5.95231 7.80104 5.34759 6.53204 4.0781ZM10 21.9989H13.0001V10.9861H10V21.9989ZM13.0001 9.98495H10V6.98149H11.03H11.031H11.9691H11.97H13.0001V9.98495ZM11.9981 5.98033H12.0531C12.8661 5.95231 15.1991 5.34759 16.4681 4.07815C17.1761 3.36931 17.1761 2.216 16.4681 1.50716C16.1251 1.16275 15.6691 0.974532 15.1841 0.974532C14.6991 0.974532 14.2441 1.16275 13.9001 1.50716C12.6151 2.79364 12.0111 5.18141 11.9971 5.96432L11.9973 5.96859L11.9976 5.97317L11.9979 5.97664L11.9981 5.98033ZM21.0001 21.9989H14.0001V10.9861H21.0001V21.9989ZM21.5001 9.98495H22.0001V6.98149H14.0001V9.98495H21.5001Z" fill="#1A1A1A"/>
</svg>
