<svg width="30" height="26" viewBox="0 0 30 26" fill="none" xmlns="http://www.w3.org/2000/svg">
<path d="M25.3737 9.41329C24.7603 9.14662 24.0937 8.99996 23.387 8.99996C21.7603 8.99996 20.3203 9.78661 19.427 10.9866C18.5203 9.78661 17.0803 8.99996 15.4537 8.99996C12.7203 8.99996 10.507 11.2266 10.507 13.9866C10.507 17.5599 12.4003 20.2933 14.507 22.1466C14.4403 22.1866 14.3737 22.2 14.307 22.2266C13.907 22.3733 13.2403 22.3733 12.8403 22.2266C9.387 21.04 1.66699 16.1333 1.66699 7.78662C1.66699 4.10662 4.62698 1.1333 8.28031 1.1333C10.4536 1.1333 12.3736 2.17329 13.5736 3.78662C14.787 2.17329 16.707 1.1333 18.867 1.1333C22.5203 1.1333 25.4803 4.10662 25.4803 7.78662C25.4803 8.34662 25.4403 8.89329 25.3737 9.41329Z" stroke="white" stroke-width="2" stroke-linecap="round" stroke-linejoin="round"/>
<path d="M19.9735 24.7867C19.6668 24.8933 19.1735 24.8933 18.8668 24.7867C17.7602 24.4133 16.0668 23.52 14.5068 22.1466C12.4002 20.2933 10.5068 17.56 10.5068 13.9867C10.5068 11.2267 12.7202 9 15.4535 9C17.0802 9 18.5202 9.78665 19.4268 10.9867C20.3202 9.78665 21.7602 9 23.3868 9C24.0935 9 24.7602 9.14666 25.3735 9.41333C27.1202 10.1867 28.3335 11.9333 28.3335 13.9867C28.3335 20.2267 22.5602 23.9067 19.9735 24.7867Z" stroke="#F25500" stroke-width="2" stroke-linecap="round" stroke-linejoin="round"/>
</svg>
