<svg width="18" height="22" viewBox="0 0 18 22" fill="none" xmlns="http://www.w3.org/2000/svg">
<path d="M2.5 18C2.5 18.2761 2.72386 18.5 3 18.5C3.27614 18.5 3.5 18.2761 3.5 18H2.5ZM14.5 18C14.5 18.2761 14.7239 18.5 15 18.5C15.2761 18.5 15.5 18.2761 15.5 18H14.5ZM3 17.5C2.72386 17.5 2.5 17.7239 2.5 18C2.5 18.2761 2.72386 18.5 3 18.5V17.5ZM15 18.5C15.2761 18.5 15.5 18.2761 15.5 18C15.5 17.7239 15.2761 17.5 15 17.5V18.5ZM3 18.5C3.27614 18.5 3.5 18.2761 3.5 18C3.5 17.7239 3.27614 17.5 3 17.5V18.5ZM1 17.5C0.723858 17.5 0.5 17.7239 0.5 18C0.5 18.2761 0.723858 18.5 1 18.5V17.5ZM15 17.5C14.7239 17.5 14.5 17.7239 14.5 18C14.5 18.2761 14.7239 18.5 15 18.5V17.5ZM17 18.5C17.2761 18.5 17.5 18.2761 17.5 18C17.5 17.7239 17.2761 17.5 17 17.5V18.5ZM3.5 18V9H2.5V18H3.5ZM3.5 9C3.5 5.96243 5.96243 3.5 9 3.5V2.5C5.41015 2.5 2.5 5.41015 2.5 9H3.5ZM9 3.5C12.0376 3.5 14.5 5.96243 14.5 9H15.5C15.5 5.41015 12.5898 2.5 9 2.5V3.5ZM14.5 9V18H15.5V9H14.5ZM3 18.5H15V17.5H3V18.5ZM3 17.5H1V18.5H3V17.5ZM15 18.5H17V17.5H15V18.5Z" fill="#292929"/>
<path d="M8 21H10" stroke="#292929" stroke-linecap="round" stroke-linejoin="round"/>
<circle cx="9" cy="2" r="1" stroke="#292929"/>
</svg>
