<svg width="18" height="15" viewBox="0 0 18 15" fill="none" xmlns="http://www.w3.org/2000/svg">
<path fill-rule="evenodd" clip-rule="evenodd" d="M2.14844 15L5.15625 11.9922C6.25 12.5651 7.44792 12.8516 8.75 12.8516C9.50521 12.8516 10.2604 12.7214 11.0156 12.4609C11.7708 12.2005 12.4023 11.9271 12.9102 11.6406C13.418 11.3542 14.0234 10.9049 14.7266 10.293C15.4297 9.68099 15.9115 9.24479 16.1719 8.98438C16.4323 8.72396 16.875 8.25521 17.5 7.57812C16.0156 5.78125 14.6615 4.47917 13.4375 3.67188L16.25 0.898438L15.3516 0L12.3438 3.04688C11.1458 2.44792 9.94792 2.14844 8.75 2.14844C7.23958 2.14844 5.82031 2.58464 4.49219 3.45703C3.16406 4.32943 1.66667 5.67708 0 7.5C1.90104 9.50521 3.24219 10.7812 4.02344 11.3281L1.25 14.1016L2.14844 15ZM5.85938 9.49219C5.44271 8.86719 5.23438 8.20312 5.23438 7.5C5.23438 6.53646 5.57943 5.70312 6.26953 5C6.95964 4.29688 7.78646 3.94531 8.75 3.94531C9.50521 3.94531 10.1823 4.16667 10.7812 4.60938L8.78906 6.5625C8.76302 6.48438 8.75 6.38021 8.75 6.25C8.75 5.96354 8.85417 5.6901 9.0625 5.42969H8.75C8.17708 5.42969 7.69531 5.63151 7.30469 6.03516C6.91406 6.4388 6.71875 6.92708 6.71875 7.5C6.71875 7.89062 6.78385 8.20312 6.91406 8.4375L5.85938 9.49219ZM6.71875 10.3906C7.31771 10.8333 7.99479 11.0547 8.75 11.0547C9.71354 11.0547 10.5404 10.7031 11.2305 10C11.9206 9.29688 12.2656 8.46354 12.2656 7.5C12.2656 6.77083 12.0573 6.09375 11.6406 5.46875L9.6875 7.46094C9.76562 7.48698 9.86979 7.5 10 7.5C10.2604 7.5 10.5208 7.40885 10.7812 7.22656V7.5C10.7812 8.07292 10.5859 8.5612 10.1953 8.96484C9.80469 9.36849 9.32292 9.57031 8.75 9.57031C8.38542 9.57031 8.07292 9.49219 7.8125 9.33594L6.71875 10.3906Z" fill="black" fill-opacity="0.25"/>
</svg>
