<svg width="16" height="16" viewBox="0 0 16 16" fill="none" xmlns="http://www.w3.org/2000/svg">
<path fill-rule="evenodd" clip-rule="evenodd" d="M15.5359 15.5359C15.4156 15.6453 15.2734 15.7 15.1094 15.7C14.9453 15.7 14.8086 15.6453 14.6992 15.5359L11.3195 12.1562C10.1492 13.1187 8.80938 13.6 7.3 13.6C5.56094 13.6 4.07617 12.9848 2.8457 11.7543C1.61523 10.5238 1 9.03906 1 7.3C1 5.56094 1.61523 4.07617 2.8457 2.8457C4.07617 1.61523 5.56094 1 7.3 1C9.03906 1 10.5238 1.61523 11.7543 2.8457C12.9848 4.07617 13.6 5.56094 13.6 7.3C13.6 8.80938 13.1187 10.1492 12.1562 11.3195L15.5359 14.6828C15.6453 14.8031 15.7 14.9453 15.7 15.1094C15.7 15.2734 15.6453 15.4156 15.5359 15.5359ZM5.31484 12.025C5.93828 12.2875 6.6 12.4187 7.3 12.4187C8 12.4187 8.66172 12.2875 9.28516 12.025C9.89766 11.7625 10.4418 11.3934 10.9176 10.9176C11.3934 10.4418 11.7625 9.89766 12.025 9.28516C12.2875 8.66172 12.4187 8 12.4187 7.3C12.4187 6.6 12.2875 5.93828 12.025 5.31484C11.7625 4.70234 11.3934 4.1582 10.9176 3.68242C10.4418 3.20664 9.89766 2.8375 9.28516 2.575C8.66172 2.3125 8 2.18125 7.3 2.18125C6.6 2.18125 5.93828 2.3125 5.31484 2.575C4.70234 2.8375 4.1582 3.20664 3.68242 3.68242C3.20664 4.1582 2.84297 4.70234 2.59141 5.31484C2.31797 5.93828 2.18125 6.6 2.18125 7.3C2.18125 8 2.31797 8.66172 2.59141 9.28516C2.84297 9.89766 3.20664 10.4418 3.68242 10.9176C4.1582 11.3934 4.70234 11.7625 5.31484 12.025Z" fill="#1A1A1A"/>
<path d="M15.5359 15.5359L15.7041 15.7209L15.7129 15.7129L15.7209 15.7041L15.5359 15.5359ZM11.3195 12.1562L11.4963 11.9795L11.3359 11.8191L11.1607 11.9632L11.3195 12.1562ZM12.1562 11.3195L11.9632 11.1607L11.8187 11.3363L11.9799 11.4967L12.1562 11.3195ZM15.5359 14.6828L15.7212 14.5144L15.7123 14.5056L15.5359 14.6828ZM5.31484 12.025L5.21636 12.2548L5.21783 12.2554L5.31484 12.025ZM9.28516 12.025L9.38217 12.2554L9.38364 12.2548L9.28516 12.025ZM10.9176 10.9176L10.7408 10.7408L10.9176 10.9176ZM12.025 9.28516L12.2548 9.38364L12.2554 9.38217L12.025 9.28516ZM12.025 5.31484L12.2554 5.21783L12.2548 5.21636L12.025 5.31484ZM10.9176 3.68242L10.7408 3.8592L10.9176 3.68242ZM9.28516 2.575L9.38364 2.34521L9.38217 2.34459L9.28516 2.575ZM5.31484 2.575L5.21783 2.34459L5.21636 2.34521L5.31484 2.575ZM3.68242 3.68242L3.50565 3.50565L3.68242 3.68242ZM2.59141 5.31484L2.82042 5.41529L2.82266 5.40982L2.59141 5.31484ZM2.59141 9.28516L2.82273 9.19015L2.82035 9.18474L2.59141 9.28516ZM3.68242 10.9176L3.8592 10.7408L3.68242 10.9176ZM15.1094 15.95C15.335 15.95 15.5373 15.8725 15.7041 15.7209L15.3678 15.351C15.2939 15.4181 15.2119 15.45 15.1094 15.45V15.95ZM14.5224 15.7127C14.6818 15.872 14.8835 15.95 15.1094 15.95V15.45C15.0072 15.45 14.9354 15.4186 14.876 15.3592L14.5224 15.7127ZM11.1428 12.333L14.5224 15.7127L14.876 15.3592L11.4963 11.9795L11.1428 12.333ZM7.3 13.85C8.86755 13.85 10.2635 13.3485 11.4783 12.3493L11.1607 11.9632C10.035 12.889 8.7512 13.35 7.3 13.35V13.85ZM2.66893 11.9311C3.94625 13.2084 5.49459 13.85 7.3 13.85V13.35C5.62729 13.35 4.2061 12.7611 3.02248 11.5775L2.66893 11.9311ZM0.75 7.3C0.75 9.10541 1.39161 10.6538 2.66893 11.9311L3.02248 11.5775C1.83886 10.3939 1.25 8.97271 1.25 7.3H0.75ZM2.66893 2.66893C1.39161 3.94625 0.75 5.49459 0.75 7.3H1.25C1.25 5.62729 1.83886 4.2061 3.02248 3.02248L2.66893 2.66893ZM7.3 0.75C5.49459 0.75 3.94625 1.39161 2.66893 2.66893L3.02248 3.02248C4.2061 1.83886 5.62729 1.25 7.3 1.25V0.75ZM11.9311 2.66893C10.6538 1.39161 9.10541 0.75 7.3 0.75V1.25C8.97271 1.25 10.3939 1.83886 11.5775 3.02248L11.9311 2.66893ZM13.85 7.3C13.85 5.49459 13.2084 3.94625 11.9311 2.66893L11.5775 3.02248C12.7611 4.2061 13.35 5.62729 13.35 7.3H13.85ZM12.3493 11.4783C13.3485 10.2635 13.85 8.86755 13.85 7.3H13.35C13.35 8.7512 12.889 10.035 11.9632 11.1607L12.3493 11.4783ZM15.7123 14.5056L12.3326 11.1423L11.9799 11.4967L15.3596 14.86L15.7123 14.5056ZM15.95 15.1094C15.95 14.8837 15.8725 14.6814 15.7209 14.5146L15.351 14.851C15.4181 14.9248 15.45 15.0069 15.45 15.1094H15.95ZM15.7209 15.7041C15.8725 15.5373 15.95 15.335 15.95 15.1094H15.45C15.45 15.2119 15.4181 15.2939 15.351 15.3678L15.7209 15.7041ZM7.3 12.1687C6.63213 12.1687 6.00351 12.0437 5.41186 11.7946L5.21783 12.2554C5.87305 12.5313 6.56786 12.6687 7.3 12.6687V12.1687ZM9.18814 11.7946C8.59649 12.0437 7.96786 12.1687 7.3 12.1687V12.6687C8.03214 12.6687 8.72695 12.5313 9.38217 12.2554L9.18814 11.7946ZM10.7408 10.7408C10.2873 11.1943 9.76965 11.5454 9.18668 11.7952L9.38364 12.2548C10.0257 11.9796 10.5963 11.5924 11.0944 11.0944L10.7408 10.7408ZM11.7952 9.18668C11.5454 9.76965 11.1943 10.2873 10.7408 10.7408L11.0944 11.0944C11.5924 10.5963 11.9796 10.0257 12.2548 9.38364L11.7952 9.18668ZM12.1687 7.3C12.1687 7.96786 12.0437 8.59649 11.7946 9.18814L12.2554 9.38217C12.5313 8.72695 12.6687 8.03214 12.6687 7.3H12.1687ZM11.7946 5.41186C12.0437 6.00351 12.1687 6.63213 12.1687 7.3H12.6687C12.6687 6.56786 12.5313 5.87305 12.2554 5.21783L11.7946 5.41186ZM10.7408 3.8592C11.1943 4.31271 11.5454 4.83035 11.7952 5.41332L12.2548 5.21636C11.9796 4.57434 11.5924 4.00369 11.0944 3.50565L10.7408 3.8592ZM9.18668 2.80479C9.76965 3.05463 10.2873 3.40568 10.7408 3.8592L11.0944 3.50565C10.5963 3.0076 10.0257 2.62037 9.38364 2.34521L9.18668 2.80479ZM7.3 2.43125C7.96786 2.43125 8.59649 2.55629 9.18814 2.80541L9.38217 2.34459C8.72695 2.06871 8.03214 1.93125 7.3 1.93125V2.43125ZM5.41186 2.80541C6.00351 2.55629 6.63214 2.43125 7.3 2.43125V1.93125C6.56786 1.93125 5.87305 2.06871 5.21783 2.34459L5.41186 2.80541ZM3.8592 3.8592C4.31271 3.40568 4.83035 3.05463 5.41332 2.80479L5.21636 2.34521C4.57434 2.62037 4.00369 3.0076 3.50565 3.50565L3.8592 3.8592ZM2.82266 5.40982C3.06145 4.82843 3.40642 4.31198 3.8592 3.8592L3.50565 3.50565C3.00686 4.00443 2.62449 4.57626 2.36015 5.21986L2.82266 5.40982ZM2.43125 7.3C2.43125 6.63357 2.5612 6.00614 2.82035 5.41526L2.36246 5.21443C2.07474 5.87043 1.93125 6.56643 1.93125 7.3H2.43125ZM2.82035 9.18474C2.5612 8.59386 2.43125 7.96643 2.43125 7.3H1.93125C1.93125 8.03357 2.07474 8.72957 2.36246 9.38557L2.82035 9.18474ZM3.8592 10.7408C3.40642 10.288 3.06145 9.77157 2.82266 9.19018L2.36015 9.38014C2.62449 10.0237 3.00686 10.5956 3.50565 11.0944L3.8592 10.7408ZM5.41332 11.7952C4.83035 11.5454 4.31271 11.1943 3.8592 10.7408L3.50565 11.0944C4.00369 11.5924 4.57434 11.9796 5.21636 12.2548L5.41332 11.7952Z" fill="#1A1A1A"/>
</svg>
