<svg width="12" height="14" viewBox="0 0 12 14" fill="none" xmlns="http://www.w3.org/2000/svg">
<path fill-rule="evenodd" clip-rule="evenodd" d="M7.41185 2.33343C7.41185 1.05114 8.44522 9.61525e-05 9.70595 9.61525e-05L9.70577 0C10.9665 0 11.9999 1.05104 11.9999 2.33333C11.9999 3.61562 10.9665 4.66667 9.70577 4.66667C9.06973 4.66667 8.49022 4.40087 8.07341 3.9712L4.38966 6.05777C4.51706 6.34709 4.58821 6.66411 4.58821 7C4.58821 7.334 4.51571 7.65402 4.38966 7.94223L8.07909 10.0288C8.49552 9.60251 9.07269 9.33333 9.70589 9.33333C10.9666 9.33333 12 10.3844 12 11.6667C12 12.949 10.9666 14 9.70589 14C8.44516 14 7.41179 12.949 7.41179 11.6667C7.41179 11.4174 7.45536 11.18 7.5275 10.9544L3.73345 8.81174C3.33867 9.13774 2.83854 9.3333 2.29411 9.3333C1.03337 9.3333 0 8.28226 0 6.99997C0 5.71768 1.03337 4.66663 2.29411 4.66663C2.83867 4.66663 3.3387 4.86782 3.73345 5.19384L7.52214 3.0513C7.45038 2.82621 7.41185 2.58195 7.41185 2.33343ZM10.9412 2.33343C10.9412 1.63321 10.3944 1.07707 9.70595 1.07707C9.01751 1.07707 8.47071 1.63321 8.47071 2.33343C8.47071 3.03364 9.01748 3.58979 9.70595 3.58979C10.3944 3.58979 10.9412 3.03364 10.9412 2.33343ZM2.29433 5.74367C2.9828 5.74367 3.52957 6.29982 3.52957 7.00003C3.52957 7.70025 2.98277 8.25639 2.29433 8.25639C1.60585 8.25639 1.05909 7.70025 1.05909 7.00003C1.05909 6.29982 1.60588 5.74367 2.29433 5.74367ZM10.9412 11.6666C10.9412 10.9664 10.3944 10.4103 9.70595 10.4103C9.01751 10.4103 8.47071 10.9664 8.47071 11.6666C8.47071 12.3668 9.01751 12.923 9.70595 12.923C10.3944 12.923 10.9412 12.3669 10.9412 11.6666Z" fill="#1A1A1A"/>
</svg>
