<svg width="12" height="12" viewBox="0 0 12 12" fill="none" xmlns="http://www.w3.org/2000/svg">
<path d="M0.971474 3.34065L2.34472 1.96741V11.143C2.34472 11.457 2.59886 11.7113 2.91302 11.7113C3.22708 11.7113 3.48133 11.4571 3.48133 11.143V1.96741L4.85457 3.34065C4.96564 3.45173 5.11167 3.50716 5.25626 3.50716C5.40084 3.50716 5.547 3.45163 5.65794 3.34065C5.87999 3.11861 5.87999 2.75777 5.65794 2.53574L3.31622 0.193915C3.26364 0.141334 3.19934 0.0989427 3.12923 0.0696966C3.12628 0.06827 3.12342 0.06827 3.12047 0.0667415C3.05617 0.0404511 2.98606 0.0258789 2.913 0.0258789C2.83993 0.0258789 2.76982 0.0404508 2.70552 0.0667415C2.70257 0.0681682 2.69971 0.0681682 2.69676 0.0696966C2.62665 0.0989427 2.56235 0.141232 2.50977 0.193915L0.166533 2.53715C-0.0555111 2.75919 -0.0555111 3.12004 0.166533 3.34206C0.388578 3.56258 0.74942 3.56258 0.971446 3.34053L0.971474 3.34065Z" fill="#1A1A1A"/>
<path d="M10.7159 8.39856L9.34263 9.7718V0.594672C9.34263 0.280611 9.08848 0.0263672 8.77432 0.0263672C8.46026 0.0263672 8.20602 0.280512 8.20602 0.594672V9.77024L6.83277 8.39699C6.61073 8.17495 6.25132 8.17495 6.02786 8.39699C5.80582 8.61904 5.80582 8.97988 6.02786 9.20191L8.3711 11.5451C8.42368 11.5977 8.48798 11.6401 8.55809 11.6694C8.56104 11.6708 8.5639 11.6708 8.56685 11.6723C8.63115 11.6986 8.70126 11.7132 8.77432 11.7132C8.84739 11.7132 8.9175 11.6986 8.9818 11.6723C8.98475 11.6709 8.9876 11.6709 8.99056 11.6694C9.06067 11.6401 9.12497 11.5978 9.17755 11.5451L11.5208 9.20191C11.7428 8.97986 11.7428 8.61902 11.5208 8.39699C11.2987 8.17648 10.9379 8.17648 10.7159 8.39852L10.7159 8.39856Z" fill="#1A1A1A"/>
</svg>
